<?xml version="1.0" encoding="utf-8"?>
<!-- Generator: Adobe Illustrator 26.0.2, SVG Export Plug-In . SVG Version: 6.00 Build 0)  -->
<svg version="1.1" id="Calque_1" xmlns="http://www.w3.org/2000/svg" xmlns:xlink="http://www.w3.org/1999/xlink" x="0px" y="0px"
	 viewBox="0 0 229.8 89.6" style="enable-background:new 0 0 229.8 89.6;" xml:space="preserve">
<style type="text/css">
	.st0{fill:#BCBD8B;}
</style>
<g id="Calque_2_00000004544270000540368020000005800041334404321415_">
	<g id="Calque_1-2">
		<path class="st0" d="M30.9,40.5c0.9,0,1.4,1.1,1.4,3.3c0,3.3-1.6,6.5-5,9.4c-5.3,4.8-13,5.7-19.2,2.3C2.7,52.6,0,47.5,0,40.2
			c0-5.3,1.5-10.5,4.2-15.1c3.9-6.8,9.7-12.3,16.6-16C28.1,5.2,35.1,3.2,42,3.2c5,0,9.1,1.1,12.3,3.3c3.6,2.5,5.4,6.1,5.4,11
			c0,6.2-3,15.9-9,29.2s-9,20.7-9,22.5c0,0.5,0.2,0.7,0.5,0.5c1.7-1.1,9.7-10.2,23.9-27.2S90.1,15,95.6,11c4-3,8.1-5.8,12.4-8.2
			C111.1,1,114.6,0,118.1,0c0.7,0,1.4,0,2.1,0.1c1.4-0.1,2.6,1,2.7,2.4c0,0.1,0,0.3,0,0.4c0,0.9-0.3,1.3-0.9,1.3
			c-0.5-0.1-0.9-0.3-1.4-0.5c-0.7-0.3-1.4-0.4-2.2-0.5c-9.3,0-21.9,8.4-37.7,25.3C74.8,34.9,67.6,43.5,59,54.2S45.5,70.7,44,71.6
			c-5.4,3.1-8.4,4.6-9.1,4.6c-0.2,0-0.3-0.3-0.3-1c0-2.2,1.9-7.8,5.6-16.8c1.5-3.5,3.8-8.7,6.7-15.6l4.6-13.5
			c1.6-4.5,2.4-7.8,2.4-9.9c0-4.6-1.3-8.1-4-10.5c-2.7-2.4-6.5-3.6-11.5-3.6c-5,0-10.4,1.8-16.1,5.3c-5.9,3.6-10.6,8.7-13.9,14.8
			c-3.1,5.9-4.6,10.8-4.6,14.9s0.8,7.3,2.5,9.6c2.4,3.6,6.5,5.8,10.9,5.7c3.4,0,6.7-1.2,9.2-3.5c2.6-2.1,4.1-5.4,4-8.8
			c0-0.7-0.1-1.3-0.2-2C30,40.8,30.2,40.5,30.9,40.5z M80.4,70.4c-0.7,0-1.4-0.1-2-0.3c-4.3-1.2-6.4-3.6-6.4-7.2
			c0-4.7,2.9-10.1,8.8-16.2c5.9-6.1,11.1-9.2,15.8-9.2c1.4-0.1,2.7,0.4,3.8,1.2c0.9,0.7,1.4,1.8,1.4,3c0,3.7-2.8,7.3-8.4,10.7
			s-10.2,5.1-13.7,5.1c-0.5,0-0.9-0.1-1.4-0.2c-1,1.7-1.5,3.7-1.5,5.7c0,3.5,1.7,5.2,5,5.2s7.6-2.2,12.8-6.7
			c3.9-3.1,7.3-6.5,10.4-10.4c0.6-0.8,1.1-1.2,1.6-1.2s0.7,0.2,0.7,0.6c-0.1,0.6-0.4,1.2-0.8,1.7c-3.7,4.8-8.1,9.1-13,12.6
			C88.3,68.6,84,70.4,80.4,70.4L80.4,70.4z M99.3,41.6c0-0.8-0.8-1.2-2.6-1.2c-1.7,0-4.1,1.3-7.2,3.9c-3.8,3.1-7.2,6.8-9.8,10.9
			c0.4,0.1,0.9,0.2,1.3,0.2c2.5,0,5.9-1.3,10.2-4c4.2-2.7,6.9-5.6,8-8.9C99.3,42.3,99.4,42,99.3,41.6L99.3,41.6z M138.2,38.8
			c7.5-12.1,12.7-18.2,15.6-18.2c0.7,0,1.3,0.2,1.9,0.5c0.8,0.3,1.2,0.8,1.2,1.4c0,0.5-0.2,0.9-0.5,1.3c-5.3,6.5-9.3,11.4-11.9,14.7
			c-7.9,9.9-12.2,17.1-13,21.4c-0.2,0.9-0.3,1.9-0.3,2.8c0,3,1.2,4.5,3.7,4.5c4.9,0,11.4-4.6,19.3-13.7c0.5-0.5,1-0.9,1.7-1.2
			c0.5-0.1,0.7,0,0.7,0.3c-0.1,0.5-0.3,0.9-0.6,1.2c-7.7,9.3-14.6,14.4-20.6,15.5c-0.5,0.1-0.9,0.1-1.4,0.1
			c-1.8,0.1-3.6-0.7-4.6-2.2c-1-1.3-1.5-3-1.6-4.7c0-2.1,0.4-4.2,1.1-6.2l-8.1,8.1c-3.7,3.4-6.5,5.1-8.7,5.1
			c-1.9,0.1-3.8-0.5-5.3-1.7c-1.7-1.2-2.6-3.2-2.5-5.3c0-4.9,3.4-10.7,10.2-17.5c6.8-6.8,13-10.1,18.7-10.2c1.9,0,3.2,0.5,3.9,1.5
			C137.8,37.2,138.1,38,138.2,38.8L138.2,38.8z M108.7,63.8c0,2.4,0.8,3.6,2.5,3.6c2.9,0,7.6-3.9,14.3-11.8c1.2-1.4,5.2-6.6,12-15.7
			c-0.5-0.8-1.4-1.3-2.4-1.2c-4.1,0-9.6,3.2-16.3,9.5C112.1,54.5,108.7,59.7,108.7,63.8z M190,38.6l1.4-0.3c0.8,0,1.5,0.3,2.1,0.8
			c0.4,0.3,0.6,0.8,0.8,1.2c0,0.3,0,0.7-0.1,1c-0.8,1.7-1.8,3.4-2.9,5c-2.3,4.1-4.3,7.5-5.8,10.3c-5.4,10.1-9.5,17-12.4,20.7
			c-6.1,8.1-12,12.2-17.5,12.2c-1.9,0-3.8-0.9-5-2.4c-1.4-1.5-2.2-3.4-2.2-5.4c0.2-0.8,0.5-1.2,0.9-1.2c0.2,0,0.4,0.2,0.5,0.7
			c0.2,1.5,0.9,2.9,1.9,4c0.7,0.8,1.7,1.3,2.8,1.4c3.8,0,7.9-2.5,12.2-7.5c3.6-4.5,6.8-9.4,9.5-14.6l5-9.9l-7.5,7.6
			c-4.8,4.6-8.1,6.9-9.9,6.9c-1.8,0-3.6-0.7-5-1.8c-1.7-1.2-2.7-3.2-2.7-5.3c0-4.9,3.4-10.7,10.2-17.4c6.8-6.7,13.1-10.1,18.6-10.1
			c2.3,0,3.7,0.7,4.4,2.2c0.2,0.5,0.4,1,0.5,1.3S190,38.6,190,38.6L190,38.6z M160.1,63.2c0,2.4,0.8,3.6,2.5,3.6
			c3.9,0,9.1-4.2,15.8-12.7L189,39.5c-0.4-1-1.5-1.5-2.5-1.4c-4.1,0-9.6,3.2-16.3,9.5C163.5,54,160.1,59.2,160.1,63.2L160.1,63.2z
			 M203.1,70.4c-0.7,0-1.4-0.1-2-0.3c-4.3-1.2-6.4-3.6-6.4-7.2c0-4.7,2.9-10.1,8.8-16.2s11.1-9.2,15.8-9.2c1.3,0,2.7,0.4,3.7,1.3
			c0.9,0.7,1.4,1.8,1.4,3c0,3.7-2.8,7.3-8.4,10.7s-10.2,5.1-13.8,5.1c-0.5,0-0.9-0.1-1.4-0.2c-1,1.7-1.5,3.7-1.5,5.7
			c0,3.5,1.6,5.2,4.9,5.2c3.3,0,7.6-2.2,12.9-6.7c3.9-3.1,7.3-6.5,10.4-10.4c0.6-0.8,1.1-1.2,1.6-1.2s0.6,0.2,0.6,0.6
			c-0.1,0.6-0.4,1.2-0.8,1.7c-3.7,4.8-8.1,9.1-13,12.6C210.9,68.5,206.6,70.3,203.1,70.4L203.1,70.4z M222,41.6
			c0-0.8-0.8-1.2-2.6-1.2c-1.7,0-4.1,1.3-7.2,3.9c-3.8,3.1-7.2,6.8-9.8,10.9c0.4,0.1,0.9,0.2,1.3,0.2c2.5,0,5.9-1.3,10.1-4
			c4.2-2.7,6.9-5.6,8-8.9C222,42.3,222,42,222,41.6L222,41.6z"/>
	</g>
</g>
</svg>
